<?xml version="1.0" encoding="utf-8"?>
<!-- Generator: Adobe Illustrator 16.0.0, SVG Export Plug-In . SVG Version: 6.00 Build 0)  -->
<!DOCTYPE svg PUBLIC "-//W3C//DTD SVG 1.1//EN" "http://www.w3.org/Graphics/SVG/1.1/DTD/svg11.dtd">
<svg version="1.1" id="Layer_1" xmlns="http://www.w3.org/2000/svg" xmlns:xlink="http://www.w3.org/1999/xlink" x="0px" y="0px"
	 width="19.699px" height="16.421px" viewBox="0 0 19.699 16.421" enable-background="new 0 0 19.699 16.421" xml:space="preserve">
<g>
	<path fill="#95C5DB" d="M14.774,14.462H1.97v-9.22h2.95c0,0,0.723-1.01,2.19-1.959H0.985C0.441,3.283,0,3.719,0,4.263V15.44
		c0,0.539,0.441,0.98,0.985,0.98h14.773c0.544,0,0.985-0.436,0.985-0.98V9.849l-1.97,1.611V14.462z M13.132,6.566v3.278l6.567-4.898
		L13.132,0v3.062c-7.94,0-8.207,8.429-8.207,8.429C7.172,7.823,8.824,6.566,13.132,6.566z"/>
</g>
</svg>
